<svg width="128" height="128" viewBox="0 0 128 128" fill="none" xmlns="http://www.w3.org/2000/svg">
<path fill-rule="evenodd" clip-rule="evenodd" d="M0 96H64.4879L127.602 33H0V96Z" fill="url(#paint0_linear_14879_110593)"/>
<path fill-rule="evenodd" clip-rule="evenodd" d="M75.7263 44.8464H63.1635V74.6541L52.1912 44.8372H41.3117L31.9453 69.7654C30.9428 63.4808 24.4448 61.3098 19.3083 59.6823C15.9232 58.5983 12.3307 57.0017 12.3771 55.2352C12.405 53.7899 14.3049 52.4558 18.0644 52.6473C20.5924 52.7801 22.8203 52.9839 27.2575 55.1179L31.6204 47.5363C27.5576 45.4826 21.9694 44.1824 17.3806 44.1763H17.3527C12.0058 44.1763 7.55004 45.9057 4.78995 48.7561C2.87867 50.7143 1.8018 53.3354 1.7854 56.0691C1.71423 59.9139 3.12832 62.647 6.09883 64.8088C8.60519 66.6432 11.8109 67.8322 14.639 68.7061C18.1263 69.7839 20.973 70.7227 20.939 72.7208C20.9193 73.4574 20.6247 74.1601 20.1128 74.6911C19.2433 75.5867 17.9066 75.9264 16.0624 75.9573C12.5071 76.0314 9.87384 75.4755 5.66253 72.9957L1.7854 80.6885C6.1258 83.1472 11.0283 84.4471 16.0191 84.4623H16.672C21.0782 84.3851 24.6367 83.1313 27.4772 80.846C27.6412 80.7194 27.7866 80.5866 27.9382 80.4507L26.6634 83.8014H38.0596L39.975 77.9894C42.1382 78.7056 44.4043 79.0634 46.6834 79.0486C48.9052 79.0595 51.1148 78.7208 53.2309 78.0449L55.0874 83.8014H73.6964V71.7573H77.753C87.565 71.7573 93.3668 66.7698 93.3668 58.4161C93.3668 49.1174 87.729 44.8464 75.7263 44.8464ZM46.6958 70.3676C45.3234 70.3759 43.9608 70.1374 42.6732 69.6635L46.6555 57.1283H46.7236L50.6379 69.7005C49.3709 70.143 48.0381 70.3685 46.6958 70.3676ZM76.4627 63.1627H73.6964V53.0457H76.4627C80.1542 53.0457 83.0968 54.281 83.0968 58.0301C83.0968 61.9213 80.1542 63.1473 76.4627 63.1473" fill="white"/>
<defs>
<linearGradient id="paint0_linear_14879_110593" x1="63.8009" y1="33" x2="63.8009" y2="96" gradientUnits="userSpaceOnUse">
<stop stop-color="#00B8F1"/>
<stop offset="0.02" stop-color="#01B6F0"/>
<stop offset="0.31" stop-color="#0D90D9"/>
<stop offset="0.58" stop-color="#1775C8"/>
<stop offset="0.82" stop-color="#1C65BF"/>
<stop offset="1" stop-color="#1E5FBB"/>
</linearGradient>
</defs>
</svg>
